<svg xmlns="http://www.w3.org/2000/svg" version="1.1" xmlns:xlink="http://www.w3.org/1999/xlink" xmlns:svgjs="http://svgjs.dev/svgjs" width="1000" height="1000" viewBox="0 0 1000 1000"><g transform="matrix(1,0,0,1,0,0.0000199900779307427)"><svg viewBox="0 0 280 280" data-background-color="#fbeaab" preserveAspectRatio="xMidYMid meet" height="1000" width="1000" xmlns="http://www.w3.org/2000/svg" xmlns:xlink="http://www.w3.org/1999/xlink"><g id="tight-bounds" transform="matrix(1,0,0,1,0,-0.000005597221814923614)"><svg viewBox="0 0 280 280" height="280" width="280"><g><svg viewBox="0 0 280 280" height="280" width="280"><g><svg viewBox="0 0 280 280" height="280" width="280"><g id="textblocktransform"><svg viewBox="0 0 280 280" height="280" width="280" id="textblock"><g><svg viewBox="0 0 280 280" height="280" width="280"><g transform="matrix(1,0,0,1,74.00336708925556,74.00336708925556)"><svg viewBox="0 0 131.99326582148888 131.99326582148888" height="131.99326582148888" width="131.99326582148888"><g><circle r="66" cx="65.99663291074444" cy="65.99663291074444" fill="#454545" data-fill-palette-color="accent"></circle></g></svg></g><g><path d="M24.793 102.753l-0.581 1.737-5.881 0.006c-0.336 0-0.839-0.022-1.511-0.065-0.672-0.043-1.431-0.094-2.279-0.154-0.848-0.06-1.702-0.122-2.562-0.186-0.86-0.064-1.658-0.128-2.392-0.191-0.734-0.064-1.326-0.115-1.776-0.154-0.449-0.038-0.674-0.057-0.673-0.057v0l-3.976-3.178 10.288 0.126c0.646-0.008 1.23 0.006 1.75 0.04 0.52 0.034 0.957 0.068 1.31 0.102 0.353 0.034 0.623 0.062 0.812 0.083 0.189 0.021 0.283 0.032 0.283 0.032v0c0 0-0.084-0.042-0.252-0.127-0.168-0.084-0.409-0.221-0.723-0.41-0.315-0.189-0.679-0.416-1.095-0.681-0.415-0.265-0.87-0.578-1.365-0.94v0l-7.75-5.449 4.509-0.675c0 0 0.185 0.118 0.553 0.354 0.369 0.235 0.86 0.547 1.472 0.933 0.612 0.387 1.281 0.814 2.007 1.281 0.726 0.467 1.436 0.936 2.133 1.406 0.696 0.471 1.325 0.891 1.887 1.262 0.562 0.37 0.986 0.673 1.271 0.908v0l4.416 3.493c0.159 0.109 0.201 0.277 0.125 0.504zM28.268 113.322v0l-25.677-8.593c-0.378-0.126-0.573-0.276-0.585-0.448-0.012-0.172 0.015-0.359 0.082-0.56v0l1.074-3.21 7.251 2.174 0.388 1.474c0 0 0.141 0.019 0.422 0.057 0.281 0.038 0.68 0.102 1.196 0.191 0.516 0.089 1.135 0.205 1.857 0.348 0.722 0.144 1.513 0.31 2.373 0.5 0.86 0.19 1.779 0.413 2.757 0.671 0.978 0.257 1.983 0.559 3.015 0.904v0l6.495 2.048c0.252 0.084 0.403 0.219 0.453 0.403 0.05 0.185-0.011 0.577-0.185 1.178-0.173 0.6-0.478 1.555-0.916 2.863zM32.085 101.918v0l-7.112-2.59c-1.024-0.371-1.997-0.745-2.92-1.124-0.923-0.379-1.791-0.753-2.605-1.124-0.814-0.37-1.554-0.709-2.221-1.016-0.667-0.307-1.233-0.581-1.699-0.821-0.466-0.24-0.828-0.431-1.089-0.574-0.26-0.143-0.39-0.215-0.39-0.214v0l-1.285 0.955-6.344-2.123c-0.243-0.193-0.407-0.353-0.491-0.479-0.084-0.126-0.088-0.302-0.012-0.529v0c0.396-1.183 0.676-2.02 0.841-2.511 0.164-0.491 0.263-0.787 0.297-0.887 0.034-0.101 0.051-0.151 0.05-0.152v0l25.678 8.594c0.252 0.084 0.407 0.206 0.465 0.366 0.059 0.16 0.001 0.539-0.171 1.139-0.173 0.6-0.504 1.63-0.992 3.09z" fill="#454545" data-fill-palette-color="primary"></path><path d="M51.773 68.34l-5.677 7.338-21.416-16.568c0 0-0.081-0.113-0.242-0.338-0.161-0.225-0.128-0.485 0.099-0.779v0l5.847-7.559c0.945 0.731 1.63 1.277 2.055 1.64 0.425 0.362 0.673 0.638 0.744 0.827 0.072 0.19 0.026 0.389-0.136 0.599v0l-3.119 4.032 15.748 12.182 3.435-4.441c0.987 0.763 1.693 1.326 2.117 1.689 0.425 0.362 0.662 0.63 0.713 0.803 0.051 0.173-0.005 0.365-0.168 0.575zM40.98 60.947l-5.019 6.488-3.213-2.486 5.482-7.086c1.323 1.023 2.169 1.72 2.538 2.089 0.369 0.369 0.44 0.701 0.212 0.995z" fill="#454545" data-fill-palette-color="primary"></path><path d="M102.687 34.328v0c-0.85 0.303-1.651 0.468-2.402 0.496-0.751 0.028-1.47-0.131-2.157-0.478-0.687-0.347-1.363-0.938-2.026-1.772-0.664-0.834-1.34-1.96-2.028-3.378-0.688-1.417-1.407-3.176-2.155-5.277v0c-0.873-2.451-1.463-4.58-1.769-6.387-0.306-1.807-0.392-3.334-0.257-4.579 0.134-1.245 0.421-2.278 0.862-3.097 0.441-0.819 0.973-1.46 1.598-1.922 0.624-0.462 1.274-0.813 1.949-1.054v0c1.075-0.383 1.901-0.558 2.477-0.523 0.576 0.034 0.999 0.194 1.269 0.478 0.27 0.284 0.472 0.614 0.606 0.988v0c0.178 0.5 0.283 0.991 0.314 1.474 0.031 0.482 0.029 0.913-0.005 1.291v0c-0.195-0.072-0.407-0.115-0.639-0.132-0.231-0.016-0.477-0.013-0.737 0.009-0.26 0.022-0.527 0.082-0.802 0.18v0c-0.425 0.151-0.809 0.38-1.151 0.685-0.342 0.305-0.613 0.733-0.811 1.283-0.199 0.55-0.289 1.244-0.272 2.083 0.017 0.839 0.156 1.861 0.415 3.065 0.26 1.204 0.679 2.618 1.259 4.244v0c0.579 1.625 1.117 2.956 1.612 3.991 0.496 1.035 0.965 1.819 1.409 2.351 0.443 0.532 0.899 0.863 1.368 0.992 0.469 0.129 0.966 0.1 1.49-0.087v0c0.575-0.205 1.101-0.449 1.578-0.732 0.477-0.283 0.859-0.574 1.148-0.873v0c0.266 0.272 0.533 0.606 0.801 1.003 0.268 0.398 0.483 0.821 0.643 1.272v0c0.205 0.575 0.202 1.14-0.009 1.694-0.211 0.554-0.623 1.06-1.235 1.518-0.612 0.458-1.393 0.856-2.343 1.194z" fill="#454545" data-fill-palette-color="primary"></path><path d="M133.961 28.039v0c-0.292 0-0.703-0.013-1.235-0.039-0.531-0.026-1.062-0.065-1.592-0.117v0l6.621-27.045c0.106-0.558 0.703-0.837 1.791-0.838v0c0.372 0 0.75 0.012 1.135 0.039 0.385 0.026 0.71 0.066 0.976 0.118v0l6.678 27.07c0.053 0.265-0.039 0.465-0.278 0.598-0.239 0.133-0.809 0.2-1.712 0.201v0c-0.292 0-0.65-0.006-1.075-0.019-0.425-0.013-0.929-0.032-1.514-0.058v0l-2.921-14.053c-0.133-0.717-0.267-1.493-0.401-2.329-0.134-0.836-0.254-1.705-0.361-2.608-0.107-0.902-0.201-1.765-0.281-2.588v0c-0.079 0.823-0.177 1.686-0.296 2.588-0.119 0.903-0.237 1.772-0.356 2.609-0.119 0.836-0.257 1.613-0.416 2.33v0l-2.733 13.303c-0.053 0.266-0.179 0.471-0.378 0.617-0.199 0.146-0.75 0.22-1.652 0.221zM144.666 21.617l-9 0.009-0.004-4.022 8.999-0.009z" fill="#454545" data-fill-palette-color="primary"></path><path d="M185.557 37.069l-3.266-1.156-0.418-11.469c-0.013-0.68 0-1.45 0.037-2.31 0.037-0.86 0.1-1.753 0.188-2.679 0.088-0.926 0.187-1.821 0.295-2.683 0.108-0.863 0.209-1.644 0.302-2.344 0.093-0.699 0.17-1.256 0.232-1.67 0.062-0.414 0.093-0.622 0.093-0.622v0l-1.6-3.355 1.051-2.373 3.341 1.183 0.409 11.254c0.02 0.739 0.011 1.56-0.026 2.461-0.038 0.902-0.099 1.81-0.183 2.724-0.084 0.914-0.176 1.789-0.275 2.627-0.099 0.838-0.197 1.592-0.294 2.261-0.096 0.67-0.171 1.2-0.224 1.589-0.053 0.389-0.08 0.584-0.08 0.584v0l1.582 3.644zM172.419 32.418v0l9.036-25.525c0.177-0.5 0.516-0.662 1.016-0.485v0l3.188 1.973-2.884 6.118c-0.111 0.552-0.239 1.112-0.384 1.681-0.145 0.568-0.292 1.143-0.441 1.723-0.149 0.581-0.3 1.147-0.453 1.698-0.153 0.551-0.31 1.094-0.471 1.629-0.161 0.534-0.322 1.048-0.482 1.54-0.16 0.492-0.316 0.951-0.466 1.377v0l-3.189 9.009c-0.089 0.25-0.213 0.403-0.374 0.459-0.161 0.056-0.533-0.006-1.117-0.185-0.584-0.179-1.577-0.516-2.979-1.012zM185.557 37.069v0l-3.188-1.973 3.115-7.008c0.129-0.602 0.263-1.181 0.403-1.737 0.14-0.556 0.28-1.091 0.42-1.604 0.14-0.514 0.275-1.015 0.406-1.504 0.131-0.489 0.272-0.967 0.423-1.434 0.151-0.467 0.301-0.929 0.448-1.384 0.147-0.455 0.3-0.908 0.459-1.358v0l3.096-8.746c0.089-0.25 0.213-0.403 0.374-0.459 0.161-0.056 0.539 0.008 1.136 0.191 0.597 0.183 1.584 0.518 2.96 1.006v0l-9.035 25.525c-0.177 0.5-0.516 0.662-1.017 0.485z" fill="#454545" data-fill-palette-color="primary"></path><path d="M211.751 53.537v0c-1.383-1.118-2.234-2.156-2.552-3.114-0.318-0.957-0.26-1.704 0.173-2.241v0c0.284-0.351 0.675-0.708 1.175-1.073 0.499-0.364 1.042-0.634 1.628-0.809v0c0.097 0.556 0.324 1.141 0.68 1.754 0.357 0.613 0.815 1.145 1.373 1.597v0c0.846 0.684 1.61 0.943 2.29 0.777 0.681-0.166 1.313-0.611 1.898-1.333v0c0.434-0.537 0.745-1.122 0.933-1.755 0.188-0.633 0.297-1.518 0.328-2.654v0l0.237-6.056c0.066-1.517 0.269-2.718 0.61-3.604 0.341-0.885 0.786-1.669 1.337-2.35v0c1.135-1.404 2.522-2.168 4.16-2.294 1.638-0.126 3.366 0.545 5.182 2.015v0c1.569 1.269 2.537 2.308 2.907 3.118 0.369 0.81 0.336 1.484-0.098 2.021v0c-0.234 0.289-0.55 0.554-0.95 0.794-0.399 0.24-0.877 0.409-1.433 0.505v0c-0.065-0.257-0.297-0.667-0.696-1.229-0.399-0.562-0.898-1.085-1.496-1.568v0c-0.764-0.618-1.467-0.973-2.109-1.066-0.642-0.093-1.18 0.13-1.614 0.666v0c-0.384 0.475-0.651 0.984-0.801 1.529-0.15 0.544-0.254 1.254-0.313 2.128v0l-0.108 6.212c-0.025 1.55-0.222 2.808-0.592 3.772-0.37 0.964-0.914 1.89-1.632 2.778v0c-0.835 1.032-1.783 1.878-2.846 2.537-1.063 0.66-2.23 0.953-3.503 0.88-1.272-0.073-2.662-0.719-4.168-1.937z" fill="#454545" data-fill-palette-color="primary"></path><path d="M239.324 84.579l-5.065-7.774 22.685-14.783c0 0 0.133-0.039 0.399-0.117 0.266-0.078 0.5 0.038 0.703 0.35v0l5.218 8.006c-1.001 0.652-1.742 1.119-2.224 1.402-0.482 0.282-0.824 0.426-1.026 0.431-0.203 0.005-0.376-0.103-0.521-0.326v0l-2.783-4.27-16.68 10.87 3.065 4.704c-1.045 0.681-1.809 1.163-2.29 1.445-0.482 0.282-0.812 0.419-0.993 0.409-0.18-0.009-0.343-0.125-0.488-0.347zM249.854 76.814l-4.479-6.872 3.403-2.218 4.891 7.506c-1.401 0.913-2.337 1.483-2.806 1.71-0.47 0.227-0.806 0.185-1.009-0.126z" fill="#454545" data-fill-palette-color="primary"></path><path d="M250.001 108.743v0l24.816-7.493c0.635-0.192 1.099-0.263 1.392-0.213 0.292 0.05 0.556 0.373 0.791 0.968 0.235 0.595 0.567 1.603 0.997 3.026v0l-25.921 7.828c-0.254 0.077-0.451 0.067-0.591-0.03-0.14-0.096-0.313-0.439-0.519-1.029-0.206-0.59-0.527-1.609-0.965-3.057z" fill="#454545" data-fill-palette-color="primary"></path><path d="M18.542 187.323l-0.593-1.765 4.755-3.602c0.268-0.202 0.689-0.49 1.264-0.866 0.566-0.379 1.211-0.802 1.937-1.269 0.723-0.474 1.45-0.945 2.181-1.415 0.736-0.478 1.422-0.915 2.059-1.311 0.631-0.394 1.139-0.715 1.525-0.964 0.388-0.242 0.582-0.363 0.582-0.363v0l5.163 0.146-8.405 6.182c-0.515 0.404-0.994 0.75-1.436 1.039-0.448 0.291-0.824 0.529-1.126 0.714-0.306 0.194-0.541 0.339-0.704 0.436-0.17 0.099-0.255 0.149-0.254 0.149v0c0 0 0.095-0.018 0.286-0.055 0.185-0.034 0.463-0.071 0.834-0.112 0.371-0.041 0.806-0.081 1.303-0.122 0.499-0.035 1.059-0.058 1.678-0.07v0l9.604-0.326-3.239 3.303c0 0-0.221 0.018-0.664 0.055-0.443 0.037-1.029 0.083-1.76 0.139-0.734 0.065-1.539 0.128-2.414 0.191-0.867 0.067-1.727 0.121-2.581 0.163-0.852 0.048-1.617 0.095-2.294 0.14-0.686 0.041-1.214 0.054-1.584 0.039v0l-5.714-0.13c-0.193 0.009-0.328-0.1-0.403-0.326zM9.263 180.892v0l26.038-8.741c0.384-0.129 0.632-0.128 0.746 0.001 0.114 0.13 0.205 0.299 0.275 0.507v0l1.093 3.255-7.2 2.67-1.214-0.958c0 0-0.127 0.071-0.381 0.212-0.247 0.139-0.606 0.333-1.075 0.582-0.472 0.242-1.045 0.526-1.72 0.85-0.675 0.325-1.419 0.673-2.233 1.044-0.805 0.375-1.685 0.758-2.639 1.148-0.948 0.388-1.944 0.758-2.988 1.108v0l-6.511 2.313c-0.252 0.084-0.456 0.069-0.614-0.046-0.153-0.123-0.343-0.48-0.569-1.069-0.226-0.589-0.562-1.548-1.008-2.876zM13.145 192.453v0l7.339-2.254c1.053-0.325 2.068-0.617 3.045-0.875 0.98-0.252 1.912-0.477 2.798-0.677 0.885-0.199 1.693-0.379 2.422-0.54 0.724-0.159 1.351-0.282 1.882-0.37 0.522-0.091 0.93-0.158 1.224-0.201 0.3-0.045 0.45-0.067 0.45-0.067v0l0.453-1.559 6.437-2.161c0.311 0.008 0.54 0.036 0.689 0.084 0.145 0.056 0.255 0.198 0.332 0.424v0c0.403 1.202 0.689 2.051 0.855 2.548 0.167 0.497 0.267 0.796 0.301 0.896 0.036 0.107 0.054 0.16 0.054 0.161v0l-26.037 8.742c-0.252 0.084-0.453 0.079-0.605-0.018-0.143-0.092-0.327-0.433-0.553-1.022-0.228-0.596-0.59-1.633-1.086-3.111z" fill="#454545" data-fill-palette-color="primary"></path><path d="M36.053 231.919l-5.764-7.434 21.706-16.829c0 0 0.129-0.05 0.388-0.15 0.264-0.104 0.512-0.006 0.744 0.293v0l5.941 7.663c-0.96 0.744-1.671 1.279-2.133 1.603-0.466 0.319-0.8 0.49-1.002 0.512-0.207 0.026-0.393-0.069-0.56-0.284v0l-3.165-4.083-15.955 12.37 3.488 4.5c-1.002 0.777-1.734 1.327-2.195 1.652-0.462 0.325-0.786 0.492-0.972 0.501-0.18 0.006-0.354-0.099-0.521-0.314zM46.055 223.195l-5.099-6.577 3.257-2.525 5.569 7.183c-1.343 1.041-2.242 1.696-2.697 1.964-0.455 0.269-0.798 0.254-1.03-0.045z" fill="#454545" data-fill-palette-color="primary"></path><path d="M95.687 273.14v0c-0.863-0.308-1.599-0.693-2.209-1.158-0.606-0.455-1.066-1.042-1.38-1.76-0.323-0.714-0.476-1.61-0.458-2.689 0.012-1.081 0.204-2.4 0.577-3.959 0.364-1.554 0.926-3.397 1.686-5.528v0c0.885-2.482 1.788-4.531 2.709-6.147 0.921-1.616 1.833-2.869 2.735-3.76 0.904-0.896 1.791-1.525 2.659-1.884 0.877-0.364 1.706-0.526 2.488-0.487 0.791 0.035 1.53 0.176 2.218 0.421v0c1.088 0.388 1.846 0.781 2.274 1.18 0.431 0.393 0.663 0.789 0.696 1.189 0.027 0.397-0.027 0.787-0.163 1.168v0c-0.181 0.506-0.412 0.959-0.695 1.359-0.29 0.397-0.568 0.734-0.837 1.012v0c-0.103-0.185-0.242-0.358-0.417-0.519-0.169-0.159-0.364-0.313-0.586-0.462-0.215-0.147-0.464-0.271-0.745-0.372v0c-0.431-0.154-0.879-0.222-1.343-0.204-0.464 0.018-0.948 0.18-1.452 0.487-0.51 0.304-1.029 0.792-1.558 1.463-0.522 0.673-1.068 1.564-1.639 2.671-0.567 1.115-1.144 2.498-1.733 4.148v0c-0.588 1.65-1.02 3.039-1.295 4.168-0.275 1.128-0.409 2.046-0.4 2.753 0.004 0.699 0.149 1.251 0.434 1.655 0.288 0.399 0.697 0.692 1.229 0.882v0c0.588 0.209 1.159 0.357 1.713 0.442 0.555 0.085 1.041 0.103 1.46 0.055v0c0.034 0.379 0.028 0.81-0.017 1.294-0.039 0.486-0.141 0.957-0.304 1.414v0c-0.209 0.588-0.576 1.031-1.098 1.331-0.523 0.3-1.172 0.431-1.948 0.394-0.772-0.029-1.639-0.215-2.601-0.557z" fill="#454545" data-fill-palette-color="primary"></path><path d="M133.855 279.987v0c-0.292 0-0.71-0.014-1.254-0.041-0.538-0.027-1.075-0.068-1.613-0.122v0l6.778-27.418c0.107-0.564 0.711-0.845 1.813-0.844v0c0.378 0 0.763 0.014 1.155 0.041 0.392 0.027 0.72 0.067 0.985 0.12v0l6.721 27.473c0.053 0.272-0.044 0.474-0.29 0.607-0.239 0.132-0.817 0.198-1.732 0.197v0c-0.299 0-0.664-0.007-1.095-0.021-0.431-0.014-0.942-0.034-1.533-0.061v0l-2.932-14.259c-0.132-0.73-0.267-1.52-0.405-2.37-0.132-0.843-0.25-1.722-0.356-2.638-0.105-0.916-0.197-1.792-0.276-2.628v0c-0.087 0.836-0.191 1.712-0.311 2.627-0.12 0.916-0.241 1.795-0.361 2.638-0.127 0.849-0.271 1.639-0.431 2.369v0l-2.802 13.486c-0.053 0.265-0.18 0.474-0.379 0.626-0.206 0.146-0.767 0.218-1.682 0.218zM144.732 273.498l-9.128-0.01 0.004-4.081 9.129 0.009z" fill="#454545" data-fill-palette-color="primary"></path><path d="M192.374 269.604l-3.312 1.173-7.648-8.771c-0.449-0.531-0.93-1.146-1.445-1.843-0.523-0.702-1.044-1.447-1.562-2.235-0.525-0.786-1.019-1.554-1.482-2.305-0.469-0.749-0.889-1.428-1.259-2.036-0.372-0.614-0.666-1.105-0.881-1.473-0.221-0.365-0.331-0.548-0.331-0.548v0l-3.393-1.618-0.69-2.544 3.388-1.199 7.506 8.61c0.485 0.575 1.001 1.226 1.547 1.954 0.549 0.735 1.08 1.49 1.595 2.266 0.52 0.773 1.008 1.523 1.462 2.249 0.454 0.726 0.859 1.382 1.214 1.967 0.349 0.588 0.626 1.053 0.832 1.395 0.206 0.343 0.309 0.514 0.309 0.514v0l3.573 1.861zM179.05 274.323v0l-9.17-25.889c-0.179-0.507-0.016-0.85 0.491-1.029v0l3.769-0.48 1.633 6.666c0.263 0.505 0.519 1.027 0.766 1.567 0.256 0.543 0.509 1.09 0.761 1.642 0.252 0.552 0.493 1.093 0.723 1.624 0.233 0.537 0.455 1.067 0.669 1.59 0.213 0.523 0.414 1.029 0.601 1.519 0.188 0.49 0.358 0.95 0.51 1.382v0l3.238 9.14c0.089 0.25 0.089 0.451 0.001 0.601-0.09 0.144-0.424 0.333-1.003 0.566-0.573 0.231-1.569 0.598-2.989 1.101zM192.374 269.604v0l-3.778 0.483-2.017-7.513c-0.281-0.555-0.544-1.099-0.789-1.632-0.243-0.527-0.473-1.037-0.69-1.529-0.217-0.493-0.43-0.974-0.637-1.443-0.208-0.468-0.402-0.935-0.581-1.4-0.179-0.465-0.358-0.922-0.539-1.372-0.176-0.459-0.346-0.916-0.507-1.373v0l-3.14-8.868c-0.089-0.25-0.086-0.452 0.007-0.604 0.09-0.144 0.427-0.334 1.013-0.57 0.592-0.238 1.585-0.604 2.98-1.098v0l9.169 25.89c0.179 0.507 0.016 0.85-0.491 1.029z" fill="#454545" data-fill-palette-color="primary"></path><path d="M224.892 250.479v0c-1.398 1.131-2.608 1.752-3.629 1.861-1.017 0.115-1.745-0.099-2.184-0.641v0c-0.288-0.356-0.562-0.821-0.822-1.396-0.251-0.574-0.403-1.168-0.457-1.782v0c0.573 0.023 1.202-0.081 1.888-0.311 0.684-0.22 1.31-0.56 1.877-1.019v0c0.856-0.693 1.275-1.395 1.255-2.105-0.02-0.71-0.326-1.431-0.919-2.163v0c-0.443-0.547-0.959-0.979-1.548-1.296-0.588-0.326-1.442-0.622-2.561-0.886v0l-5.955-1.519c-1.493-0.389-2.643-0.845-3.452-1.369-0.803-0.528-1.484-1.138-2.043-1.829v0c-1.152-1.424-1.618-2.959-1.398-4.607 0.222-1.657 1.254-3.23 3.096-4.72v0c1.589-1.286 2.825-2.026 3.709-2.221 0.884-0.195 1.547-0.019 1.99 0.528v0c0.234 0.289 0.426 0.658 0.577 1.108 0.156 0.446 0.223 0.955 0.2 1.529v0c-0.265 0.01-0.722 0.153-1.369 0.429-0.638 0.277-1.261 0.662-1.87 1.155v0c-0.774 0.626-1.274 1.248-1.499 1.866-0.226 0.618-0.119 1.198 0.319 1.74v0c0.388 0.48 0.835 0.852 1.34 1.118 0.515 0.267 1.198 0.52 2.05 0.761v0l6.136 1.425c1.534 0.355 2.74 0.817 3.619 1.387 0.879 0.569 1.682 1.303 2.408 2.2v0c0.848 1.047 1.487 2.169 1.918 3.366 0.426 1.192 0.47 2.411 0.131 3.659-0.339 1.248-1.275 2.492-2.807 3.732z" fill="#454545" data-fill-palette-color="primary"></path><path d="M256.17 214.115l-5.135 7.882-23.013-14.993c0 0-0.089-0.106-0.268-0.317-0.185-0.215-0.174-0.481 0.033-0.799v0l5.293-8.124c1.018 0.663 1.755 1.16 2.213 1.49 0.455 0.336 0.725 0.595 0.812 0.778 0.092 0.187 0.064 0.394-0.084 0.622v0l-2.821 4.329 16.916 11.021 3.108-4.771c1.062 0.692 1.822 1.203 2.28 1.533 0.458 0.33 0.722 0.581 0.792 0.754 0.064 0.169 0.022 0.367-0.126 0.595zM244.65 207.524l-4.543 6.973-3.453-2.25 4.961-7.615c1.424 0.927 2.337 1.562 2.74 1.904 0.403 0.342 0.501 0.671 0.295 0.988z" fill="#454545" data-fill-palette-color="primary"></path><path d="M269.172 184.956v0l-25.164-7.614c-0.648-0.196-1.08-0.396-1.296-0.6-0.222-0.206-0.264-0.628-0.126-1.265 0.136-0.632 0.422-1.668 0.857-3.111v0l26.289 7.954c0.254 0.077 0.416 0.195 0.485 0.355 0.063 0.158 0.015 0.545-0.143 1.163-0.157 0.611-0.458 1.65-0.902 3.118z" fill="#454545" data-fill-palette-color="primary"></path><path d="M3.546 143.911c0-5.965 4.835-10.8 10.799-10.799 5.965 0 10.8 4.835 10.8 10.799 0 5.965-4.835 10.8-10.8 10.8-5.965 0-10.8-4.835-10.799-10.8z" fill="#454545" data-fill-palette-color="primary"></path><path d="M254.413 143.911c0-5.965 4.835-10.8 10.8-10.799 5.965 0 10.8 4.835 10.8 10.799 0 5.965-4.835 10.8-10.8 10.8-5.965 0-10.8-4.835-10.8-10.8z" fill="#454545" data-fill-palette-color="primary"></path></g></svg></g></svg></g></svg></g></svg></g><defs></defs></svg><rect width="280" height="280" fill="none" stroke="none" visibility="hidden"></rect></g></svg></g></svg>